<?xml version="1.0" encoding="utf-8"?>
<!-- Generator: Adobe Illustrator 16.0.0, SVG Export Plug-In . SVG Version: 6.00 Build 0)  -->
<!DOCTYPE svg PUBLIC "-//W3C//DTD SVG 1.1//EN" "http://www.w3.org/Graphics/SVG/1.1/DTD/svg11.dtd">
<svg version="1.1" id="Calque_1" xmlns="http://www.w3.org/2000/svg" xmlns:xlink="http://www.w3.org/1999/xlink" x="0px" y="0px"
	 width="960px" height="560px" viewBox="0 0 960 560" enable-background="new 0 0 960 560" xml:space="preserve">
<path fill-rule="evenodd" clip-rule="evenodd" fill="#02BCEB" d="M367.239,251.187c-2.071-21.644-1.056-23.327,13.438-21.458
	c15.49,2,7.324,13.775,8.786,21.568C382.024,257.55,374.617,257.421,367.239,251.187z"/>
<path fill-rule="evenodd" clip-rule="evenodd" fill="#02C0EF" d="M388.667,308.673c3.333,21.881,2.47,23.468-13.902,21.587
	c-16.274-1.87-5.295-14.042-7.557-21.239C374.26,302.594,381.413,302.599,388.667,308.673z"/>
<path fill-rule="evenodd" clip-rule="evenodd" fill="#02C1F0" d="M388.867,258.325c1.396,5.871,1.676,11.771,0.471,17.711
	c-7.34,6.855-14.733,6.493-22.17,0.164c0.008-5.857,0.017-11.715,0.024-17.572C374.342,253.251,381.573,253.45,388.867,258.325z"/>
<path fill-rule="evenodd" clip-rule="evenodd" fill="#03BEEC" d="M367.149,301.226c-1.357-5.801-1.247-11.599,0.044-17.392
	c6.979-5.354,14.024-5.302,21.133-0.267c2.136,5.726,1.966,11.623,1.317,17.557C382.172,307.017,374.672,306.782,367.149,301.226z"
	/>
<path fill-rule="evenodd" clip-rule="evenodd" fill="#048EB9" d="M367.149,301.226c7.499-0.029,14.998-0.061,22.495-0.096
	c2.405,2.862-0.208,5.079-0.977,7.54c-7.153,0.112-14.307,0.225-21.458,0.343C367.189,306.422,367.169,303.825,367.149,301.226z"/>
<path fill-rule="evenodd" clip-rule="evenodd" fill="#067FA4" d="M388.327,283.567c-7.059-1.078-14.107-1.245-21.135,0.26
	c-0.007-2.533-0.017-5.074-0.024-7.621c7.391-0.059,14.781-0.109,22.17-0.165C391.536,278.888,389.784,281.208,388.327,283.567z"/>
<path fill-rule="evenodd" clip-rule="evenodd" fill="#03738D" d="M388.867,258.325c-7.225,0.1-14.449,0.197-21.675,0.3
	c0.016-2.474,0.031-4.954,0.047-7.435c7.409,0.033,14.816,0.07,22.224,0.107C391.894,253.862,389.862,256.05,388.867,258.325z"/>
<path fill-rule="evenodd" clip-rule="evenodd" fill="#02BCEB" d="M842.862,40.396c-2.071-21.645-1.056-23.327,13.438-21.459
	c15.49,2,7.324,13.775,8.785,21.568C857.648,46.759,850.24,46.63,842.862,40.396z"/>
<path fill-rule="evenodd" clip-rule="evenodd" fill="#02C0EF" d="M864.291,97.882c3.333,21.881,2.471,23.468-13.902,21.587
	c-16.273-1.87-5.295-14.042-7.557-21.239C849.883,91.803,857.037,91.808,864.291,97.882z"/>
<path fill-rule="evenodd" clip-rule="evenodd" fill="#02C1F0" d="M864.49,47.534c1.396,5.871,1.676,11.771,0.471,17.711
	c-7.34,6.855-14.732,6.493-22.17,0.164c0.008-5.857,0.018-11.715,0.024-17.572C849.966,42.46,857.196,42.659,864.49,47.534z"/>
<path fill-rule="evenodd" clip-rule="evenodd" fill="#03BEEC" d="M842.773,90.435c-1.357-5.801-1.247-11.599,0.044-17.392
	c6.979-5.354,14.024-5.302,21.134-0.267c2.135,5.726,1.965,11.623,1.316,17.557C857.795,96.226,850.296,95.991,842.773,90.435z"/>
<path fill-rule="evenodd" clip-rule="evenodd" fill="#048EB9" d="M842.773,90.435c7.498-0.029,14.998-0.061,22.494-0.096
	c2.405,2.862-0.209,5.079-0.977,7.54c-7.153,0.112-14.307,0.225-21.459,0.343C842.813,95.631,842.793,93.034,842.773,90.435z"/>
<path fill-rule="evenodd" clip-rule="evenodd" fill="#067FA4" d="M863.951,72.776c-7.059-1.078-14.107-1.245-21.136,0.26
	c-0.007-2.533-0.017-5.074-0.024-7.621c7.391-0.059,14.781-0.109,22.17-0.165C867.159,68.097,865.407,70.417,863.951,72.776z"/>
<path fill-rule="evenodd" clip-rule="evenodd" fill="#03738D" d="M864.49,47.534c-7.225,0.1-14.449,0.197-21.675,0.3
	c0.016-2.474,0.03-4.954,0.047-7.435c7.409,0.033,14.816,0.07,22.224,0.107C867.518,43.071,865.485,45.259,864.49,47.534z"/>
<path fill-rule="evenodd" clip-rule="evenodd" fill="#0CB00D" d="M484.797,501.173c1.541-7.229-7.642-18.393,6.453-20.952
	c15.491-2.813,18.563,3.48,12.462,23.669C497.082,505.248,490.527,506.077,484.797,501.173z"/>
<path fill-rule="evenodd" clip-rule="evenodd" fill="#0AB60C" d="M458.771,509.798c6.545-8.402,14.455-4.15,22.098-2.386
	c5.155,6.436,6.2,13.505-0.054,19.21c-5.847,5.333-16.741,7.634-20.088,0.896C457.304,520.626,459.354,518.474,458.771,509.798z"/>
<path fill-rule="evenodd" clip-rule="evenodd" fill="#06B306" d="M503.221,506.939c5.34,7.278,3.918,14.527-0.09,21.768
	c-1.356,1.351-2.992,2.004-4.904,1.978c-16.54-2.901-16.54-2.901-14.373-24.423l-0.286,0.426"/>
<path fill-rule="evenodd" clip-rule="evenodd" fill="#044308" d="M458.771,509.798c2.249,6.482-1.354,17.056,13.145,16.856
	c16.467-0.227,10.067-11.347,11.004-19.244c0.994-0.381,1.988-0.763,2.984-1.146c-1.177,12.39,1.516,21.955,16.477,22.563
	c-2.577,3.736-6.65,3.938-10.563,4.517c-2.962,0.198-5.862,0.826-8.725,1.589c-10.108,0.396-18.943,2.479-19.942,15.043
	c-0.921,1.342-2.193,2.035-3.798,2.197"/>
<path fill-rule="evenodd" clip-rule="evenodd" fill="#02670B" d="M503.221,506.939c-6.551-0.084-13.102-0.168-19.652-0.254
	c0.408-1.838,0.817-3.678,1.229-5.516c6.357,0.529,13.229-2.499,18.912,2.725C503.637,504.922,503.473,505.938,503.221,506.939z"/>
<path fill-rule="evenodd" clip-rule="evenodd" fill="#04B602" d="M459.354,551.074c0.322-20.598,0.322-20.598,21.731-18.377
	c2.496,6.977,4.419,14.971-1.843,19.894C473.401,557.184,463.75,556.447,459.354,551.074z"/>
<path fill-rule="evenodd" clip-rule="evenodd" fill="#0CB00D" d="M51.183,218.387c1.541-7.229-7.642-18.393,6.453-20.952
	c15.492-2.813,18.564,3.48,12.462,23.669C63.468,222.462,56.914,223.291,51.183,218.387z"/>
<path fill-rule="evenodd" clip-rule="evenodd" fill="#0AB60C" d="M25.157,227.012c6.545-8.402,14.455-4.15,22.098-2.386
	c5.154,6.436,6.2,13.505-0.054,19.21c-5.847,5.333-16.741,7.634-20.088,0.896C23.69,237.84,25.74,235.688,25.157,227.012z"/>
<path fill-rule="evenodd" clip-rule="evenodd" fill="#06B306" d="M69.607,224.153c5.34,7.278,3.918,14.527-0.091,21.768
	c-1.356,1.351-2.992,2.004-4.904,1.978c-16.54-2.901-16.54-2.901-14.373-24.423l-0.287,0.426"/>
<path fill-rule="evenodd" clip-rule="evenodd" fill="#044308" d="M25.157,227.012c2.249,6.482-1.354,17.056,13.145,16.856
	c16.467-0.227,10.067-11.347,11.004-19.244c0.994-0.381,1.989-0.763,2.984-1.146c-1.176,12.39,1.516,21.955,16.478,22.563
	c-2.578,3.736-6.65,3.938-10.563,4.517c-2.962,0.198-5.862,0.826-8.725,1.589c-10.107,0.396-18.943,2.479-19.942,15.043
	c-0.921,1.342-2.193,2.035-3.798,2.197"/>
<path fill-rule="evenodd" clip-rule="evenodd" fill="#02670B" d="M69.607,224.153c-6.551-0.084-13.102-0.168-19.652-0.254
	c0.408-1.838,0.817-3.678,1.228-5.516c6.358,0.529,13.229-2.499,18.913,2.725C70.022,222.136,69.859,223.151,69.607,224.153z"/>
<path fill-rule="evenodd" clip-rule="evenodd" fill="#04B602" d="M25.74,268.288c0.322-20.598,0.322-20.598,21.731-18.377
	c2.496,6.977,4.418,14.971-1.843,19.894C39.788,274.397,30.136,273.661,25.74,268.288z"/>
<path fill-rule="evenodd" clip-rule="evenodd" fill="#FB7209" d="M853.57,428.62c2.913-18.159,15.33-8.73,24.59-8.473
	c2.748,6.75,1.399,12.833-3.004,18.416C866.54,438.33,855.324,443.747,853.57,428.62z"/>
<path fill-rule="evenodd" clip-rule="evenodd" fill="#FB6904" d="M900.074,420.3c0.007,6.084,0.01,12.165,0.016,18.249
	c-6.117-0.019-12.233-0.035-18.348-0.054c-5.365-6.163-3.369-12.566-0.622-19.001C887.635,415.249,893.979,414.858,900.074,420.3z"
	/>
<path fill-rule="evenodd" clip-rule="evenodd" fill="#C01B07" d="M877.72,387.85c-0.08-6.089-0.16-12.18-0.239-18.27
	c1.576-0.732,3.115-0.651,4.604,0.233c1.145,13.749,13.627,14.314,22.39,19.225c0.674,1.67,0.368,3.13-0.913,4.388
	c-1.218,0.688-2.436,1.376-3.649,2.065c-8.171,3.32-16.943,6.104-15.803,17.742c-0.979,2.118-2.138,3.984-4.931,3.566
	C878.691,407.149,878.204,397.5,877.72,387.85z"/>
<path fill-rule="evenodd" clip-rule="evenodd" fill="#C31205" d="M879.179,416.8c0.785-1.023,1.57-2.047,2.354-3.073
	c6.102-4.635,12.247-4.809,18.44-0.191c3.406,2.203,4.004,4.45,0.104,6.765c-6.104,0.041-12.206,0.079-18.305,0.119
	c-1.245-0.232-2.492-0.465-3.737-0.701C878.416,418.744,878.799,417.772,879.179,416.8z"/>
<path fill-rule="evenodd" clip-rule="evenodd" fill="#FC6F02" d="M899.974,413.535c-6.145,0.064-12.295,0.128-18.44,0.193
	c-2.22-14.492,2.291-22.202,18.379-18.241C899.931,401.505,899.955,407.521,899.974,413.535z"/>
<path fill-rule="evenodd" clip-rule="evenodd" fill="#F83102" d="M865.354,435.695c3.408-0.016,5.961-0.92,6.123-5.2
	c-0.414-3.765-2.581-6.242-6.705-6.433c0,0-4.027,1.746-3.361,6.046C862.076,434.407,864.293,435.7,865.354,435.695z"/>
<path fill-rule="evenodd" clip-rule="evenodd" fill="#F72E01" d="M896.655,429.503c-0.106,5.329-2.747,6.31-6.144,6.192
	c-3.606-0.124-5.801-1.919-5.305-5.695c0.438-3.318,2.392-5.723,6.016-5.471C894.838,424.78,895.944,427.706,896.655,429.503z"/>
<path fill-rule="evenodd" clip-rule="evenodd" fill="#E3670A" d="M881.623,369.449c20.772-4.68,22.18-3.423,20.855,18.637
	C881.512,389.763,881.512,389.763,881.623,369.449z"/>
<path fill-rule="evenodd" clip-rule="evenodd" fill="#F43303" d="M891.425,410.452c-4.286,0.129-6.616-1.779-6.534-6.235
	c0.053-2.798,1.107-5.085,4.097-5.293c3.978-0.279,6.816,1.671,7.534,5.731C897.196,408.468,894.973,410.143,891.425,410.452z"/>
<path fill-rule="evenodd" clip-rule="evenodd" fill="#F73104" d="M890.604,373.519c3.603-0.038,5.942,1.428,6.126,5.302
	c0.211,4.501-1.993,6.705-6.488,6.515c-3.838-0.163-5.396-2.457-5.356-6.056C884.925,375.548,886.881,373.646,890.604,373.519z"/>
<path fill-rule="evenodd" clip-rule="evenodd" fill="#FB7209" d="M231.814,35.043c-2.913,18.159-15.33,8.73-24.59,8.473
	c-2.748-6.75-1.399-12.833,3.004-18.416C218.845,25.333,230.061,19.916,231.814,35.043z"/>
<path fill-rule="evenodd" clip-rule="evenodd" fill="#FB6904" d="M185.311,43.363c-0.007-6.084-0.01-12.165-0.016-18.249
	c6.117,0.019,12.233,0.035,18.348,0.054c5.365,6.163,3.369,12.566,0.622,19.001C197.75,48.414,191.406,48.805,185.311,43.363z"/>
<path fill-rule="evenodd" clip-rule="evenodd" fill="#C01B07" d="M207.665,75.813c0.08,6.089,0.16,12.18,0.239,18.27
	c-1.576,0.732-3.115,0.651-4.604-0.233c-1.145-13.749-13.627-14.314-22.39-19.225c-0.674-1.67-0.368-3.13,0.913-4.388
	c1.218-0.688,2.436-1.376,3.649-2.065c8.171-3.32,16.943-6.104,15.803-17.742c0.979-2.118,2.138-3.984,4.931-3.566
	C206.693,56.514,207.181,66.163,207.665,75.813z"/>
<path fill-rule="evenodd" clip-rule="evenodd" fill="#C31205" d="M206.206,46.863c-0.785,1.023-1.57,2.047-2.354,3.073
	c-6.102,4.635-12.247,4.809-18.44,0.191c-3.406-2.203-4.004-4.45-0.104-6.765c6.104-0.041,12.206-0.079,18.305-0.119
	c1.245,0.232,2.492,0.465,3.737,0.701C206.969,44.919,206.586,45.891,206.206,46.863z"/>
<path fill-rule="evenodd" clip-rule="evenodd" fill="#FC6F02" d="M185.411,50.128c6.145-0.064,12.295-0.128,18.44-0.193
	c2.22,14.492-2.291,22.202-18.379,18.241C185.454,62.158,185.43,56.143,185.411,50.128z"/>
<path fill-rule="evenodd" clip-rule="evenodd" fill="#F83102" d="M220.031,27.968c-3.408,0.016-5.961,0.92-6.123,5.2
	c0.414,3.765,2.581,6.242,6.705,6.433c0,0,4.027-1.746,3.361-6.045S221.092,27.963,220.031,27.968z"/>
<path fill-rule="evenodd" clip-rule="evenodd" fill="#F72E01" d="M188.729,34.16c0.106-5.329,2.747-6.31,6.144-6.192
	c3.606,0.124,5.801,1.919,5.305,5.695c-0.438,3.318-2.392,5.723-6.016,5.471C190.547,38.883,189.44,35.957,188.729,34.16z"/>
<path fill-rule="evenodd" clip-rule="evenodd" fill="#E3670A" d="M203.762,94.214c-20.772,4.68-22.18,3.423-20.855-18.637
	C203.873,73.9,203.873,73.9,203.762,94.214z"/>
<path fill-rule="evenodd" clip-rule="evenodd" fill="#F43303" d="M193.96,53.211c4.286-0.129,6.616,1.779,6.534,6.235
	c-0.053,2.798-1.107,5.085-4.097,5.293c-3.978,0.279-6.816-1.671-7.534-5.731C188.188,55.195,190.412,53.521,193.96,53.211z"/>
<path fill-rule="evenodd" clip-rule="evenodd" fill="#F73104" d="M194.781,90.145c-3.603,0.038-5.942-1.428-6.126-5.302
	c-0.211-4.501,1.993-6.705,6.488-6.515c3.838,0.163,5.396,2.457,5.356,6.056C200.46,88.115,198.504,90.018,194.781,90.145z"/>
<path fill-rule="evenodd" clip-rule="evenodd" fill="#C8128D" d="M162.683,468.403c1.628-8.674-8.03-24.186,12.53-21.477
	c14.315,1.888,7.093,13.306,8.519,20.86C176.865,473.103,169.851,473.409,162.683,468.403z"/>
<path fill-rule="evenodd" clip-rule="evenodd" fill="#CD058D" d="M137.493,494.547c-6.065-8.766-7.38-16.823,3.5-23.024
	c4.015,0.278,8.083,1.236,11.912-0.908c0.947,0.282,1.881,0.244,2.801-0.119c0.938,0.334,1.84,0.748,2.704,1.241
	c6.031,6.165,6.419,13.849,1.831,19.958C154.389,499.482,145.675,498.047,137.493,494.547"/>
<path fill-rule="evenodd" clip-rule="evenodd" fill="#63052F" d="M136.598,496.679l19.704,0.691c0,0,5.503,5.58,5.859,20.814
	c1.361-0.785,1.657-1.098,2.336-2.513c1.346-3.773,1.488-7.721,1.599-11.665c0.063-4.015,0.128-8.029,0.158-12.038
	c-0.037-5.825,0.385-11.688-1.329-17.387c-0.626-1.62-1.627-2.954-3.023-3.992c-1.164,0.384-2.329,0.765-3.488,1.144
	c1.297,22.058,1.297,22.058-21.226,20.904"/>
<path fill-rule="evenodd" clip-rule="evenodd" fill="#76084D" d="M162.419,474.7c-0.172-1.371-0.343-2.741-0.517-4.11
	c0.037-0.812,0.297-1.542,0.782-2.19c7.015-0.201,14.032-0.405,21.049-0.609c0.443,1.095,0.886,2.194,1.332,3.293
	c-0.323,0.974-0.372,1.958-0.146,2.957c-0.504,0.521-1.009,1.042-1.51,1.569C176.339,477.037,169.298,477.731,162.419,474.7z"/>
<path fill-rule="evenodd" clip-rule="evenodd" fill="#73041C" d="M162.161,518.185l0.235-0.516
	c4.234-5.959,18.567,0.516,16.316-13.293c-1.746-7.194-14.775-1.856-13.613-12.216c9.505-2.37,15.75-8.165,18.51-17.621
	c0,0,1.3-0.501,1.305-0.499c4.637,5.738,1.154,12.521,2.412,18.692c0.011,2.252,0.02,4.506,0.029,6.761
	c-0.018,6.121-0.038,12.243-0.058,18.361"/>
<path fill-rule="evenodd" clip-rule="evenodd" fill="#B0026D" d="M151.975,482.913c-0.602,2.998-2.933,4.367-5.505,4.428
	c-4.125,0.096-3.046-3.416-2.788-5.604c0.351-2.992,2.531-4.363,5.533-3.535C151.478,478.83,152.373,480.57,151.975,482.913z"/>
<path fill-rule="evenodd" clip-rule="evenodd" fill="#E1059A" d="M183.609,474.539c3.542,15.342-2.774,21.243-17.908,18.702
	c-1.531,1.574-2.488,1.278-2.868-0.883c-0.138-5.887-0.276-11.775-0.414-17.66C169.463,472.167,176.534,472.956,183.609,474.539z"/>
<path fill-rule="evenodd" clip-rule="evenodd" fill="#DB0492" d="M183.819,502.541c3.757,20.475-10.445,15.522-21.423,15.13
	c0.05-4.037,0.101-8.071,0.151-12.105C167.924,492.505,175.657,496.014,183.819,502.541z"/>
<path fill-rule="evenodd" clip-rule="evenodd" fill="#97116F" d="M183.819,502.541c-7.908-4.723-15.322-5.969-21.274,3.025
	c0.096-4.402,0.189-8.803,0.287-13.206c0.982,0.205,1.936,0.499,2.866,0.881C169.539,500.632,182.647,489.957,183.819,502.541z"/>
<path fill-rule="evenodd" clip-rule="evenodd" fill="#C8128D" d="M656.854,152.228c-8.674-1.628-24.186,8.03-21.477-12.53
	c1.888-14.314,13.306-7.093,20.86-8.519C661.553,138.045,661.859,145.059,656.854,152.228z"/>
<path fill-rule="evenodd" clip-rule="evenodd" fill="#CD058D" d="M682.997,177.418c-8.766,6.064-16.823,7.38-23.024-3.5
	c0.278-4.016,1.236-8.083-0.908-11.912c0.282-0.947,0.244-1.881-0.119-2.801c0.334-0.938,0.748-1.84,1.241-2.704
	c6.165-6.031,13.849-6.419,19.958-1.831C687.933,160.521,686.497,169.235,682.997,177.418"/>
<path fill-rule="evenodd" clip-rule="evenodd" fill="#63052F" d="M685.129,178.313l0.691-19.704c0,0,5.58-5.503,20.814-5.859
	c-0.785-1.361-1.098-1.657-2.513-2.337c-3.773-1.346-7.721-1.488-11.665-1.599c-4.015-0.063-8.029-0.128-12.038-0.158
	c-5.825,0.037-11.688-0.385-17.387,1.329c-1.62,0.626-2.954,1.627-3.992,3.023c0.384,1.164,0.765,2.329,1.144,3.488
	c22.058-1.297,22.058-1.297,20.904,21.226"/>
<path fill-rule="evenodd" clip-rule="evenodd" fill="#76084D" d="M663.15,152.491c-1.371,0.172-2.741,0.343-4.11,0.517
	c-0.812-0.037-1.542-0.297-2.19-0.781c-0.201-7.016-0.405-14.033-0.609-21.049c1.095-0.443,2.194-0.887,3.293-1.332
	c0.974,0.322,1.958,0.371,2.957,0.146c0.521,0.504,1.042,1.009,1.569,1.51C665.487,138.571,666.182,145.612,663.15,152.491z"/>
<path fill-rule="evenodd" clip-rule="evenodd" fill="#73041C" d="M706.635,152.749l-0.516-0.235
	c-5.959-4.234,0.516-18.566-13.293-16.315c-7.194,1.745-1.856,14.775-12.216,13.613c-2.37-9.505-8.165-15.749-17.621-18.511
	c0,0-0.501-1.3-0.499-1.305c5.738-4.637,12.521-1.154,18.692-2.411c2.252-0.011,4.506-0.021,6.761-0.028
	c6.121,0.018,12.243,0.037,18.361,0.058"/>
<path fill-rule="evenodd" clip-rule="evenodd" fill="#B0026D" d="M671.363,162.936c2.998,0.602,4.367,2.932,4.428,5.505
	c0.096,4.125-3.416,3.046-5.604,2.788c-2.992-0.351-4.363-2.531-3.535-5.533C667.28,163.433,669.021,162.537,671.363,162.936z"/>
<path fill-rule="evenodd" clip-rule="evenodd" fill="#E1059A" d="M662.989,131.301c15.342-3.541,21.243,2.775,18.702,17.908
	c1.574,1.531,1.278,2.488-0.883,2.868c-5.887,0.138-11.775,0.276-17.66,0.414C660.617,145.447,661.406,138.377,662.989,131.301z"/>
<path fill-rule="evenodd" clip-rule="evenodd" fill="#DB0492" d="M690.991,131.091c20.475-3.757,15.522,10.445,15.13,21.423
	c-4.037-0.05-8.071-0.101-12.105-0.15C680.955,146.986,684.464,139.254,690.991,131.091z"/>
<path fill-rule="evenodd" clip-rule="evenodd" fill="#97116F" d="M690.991,131.091c-4.723,7.907-5.969,15.321,3.025,21.274
	c-4.402-0.096-8.803-0.189-13.206-0.287c0.205-0.982,0.499-1.936,0.881-2.865C689.082,145.371,678.407,132.263,690.991,131.091z"/>
</svg>
